<svg width="24" height="24" viewBox="0 0 24 24" fill="none" xmlns="http://www.w3.org/2000/svg">
<rect opacity="0.4" x="8" y="10" width="8" height="3" fill="#1A1717" fill-opacity="0.44"/>
<path fill-rule="evenodd" clip-rule="evenodd" d="M9 6C9.55228 6 10 6.44772 10 7V8H14V7C14 6.44772 14.4477 6 15 6C15.5523 6 16 6.44772 16 7V8C17.1046 8 18 8.89543 18 10V16C18 17.1046 17.1046 18 16 18H8C6.89543 18 6 17.1046 6 16V10C6 8.89543 6.89543 8 8 8L8 7C8 6.44772 8.44772 6 9 6ZM16 10H8L8 16H16V10Z" fill="#1A1717" fill-opacity="0.6"/>
</svg>
