<svg width="24" height="24" viewBox="0 0 24 24" fill="none" xmlns="http://www.w3.org/2000/svg">
<path d="M11.7071 16.7071C11.3166 17.0976 10.6834 17.0976 10.2929 16.7071C9.90237 16.3166 9.90237 15.6834 10.2929 15.2929L11.7071 16.7071ZM10.2929 8.70711C9.90237 8.31658 9.90237 7.68342 10.2929 7.29289C10.6834 6.90237 11.3166 6.90237 11.7071 7.29289L10.2929 8.70711ZM15 12L15.7071 11.2929C16.0976 11.6834 16.0976 12.3166 15.7071 12.7071L15 12ZM10.2929 15.2929L14.2929 11.2929L15.7071 12.7071L11.7071 16.7071L10.2929 15.2929ZM14.2929 12.7071L10.2929 8.70711L11.7071 7.29289L15.7071 11.2929L14.2929 12.7071Z" fill="#1A1717" fill-opacity="0.8"/>
</svg>
