<svg viewBox="0 0 250 48" version="1.1" xmlns="http://www.w3.org/2000/svg" xmlns:xlink="http://www.w3.org/1999/xlink">
  <g clip-path="url(#clip0_6_299)">
  <path d="M97.91 9.12H104.821V11.481C105.563 10.835 107.959 8.541 112.384 8.541C117.591 8.541 121.728 12.385 121.728 18.421V34.089H114.428V20.363C114.428 16.998 112.787 15.002 109.817 15.002C106.94 15.002 105.209 16.884 105.209 20.363V34.089H97.91V9.12ZM167.442 21.604C167.442 14.401 173.21 8.541 180.764 8.541C188.316 8.541 194.082 14.401 194.082 21.604C194.082 28.805 188.315 34.658 180.764 34.658C173.21 34.658 167.442 28.805 167.442 21.604ZM174.648 21.604C174.648 25.053 177.225 27.891 180.807 27.891C184.395 27.891 186.976 25.053 186.976 21.604C186.976 18.153 184.395 15.317 180.807 15.317C177.226 15.317 174.648 18.153 174.648 21.604ZM67.188 21.609C67.188 14.403 72.959 8.543 80.506 8.543C88.062 8.543 93.831 14.403 93.831 21.609C93.831 28.808 88.062 34.659 80.506 34.659C72.958 34.66 67.188 28.808 67.188 21.609ZM74.394 21.607C74.394 25.058 76.971 27.896 80.557 27.896C84.145 27.896 86.722 25.058 86.722 21.607C86.722 18.153 84.145 15.32 80.557 15.32C76.971 15.32 74.394 18.153 74.394 21.607ZM229.493 6.354H236.892V0H229.493V6.354ZM229.493 34.089H236.892V9.12H229.493V34.089ZM242.598 34.089H250V0H242.598V34.089ZM205.378 34.089H198.361V0H205.458V11.102C205.81 10.843 208.109 8.541 213.132 8.541C219.702 8.541 225.185 14.183 225.185 21.609C225.185 29.021 219.345 34.663 213.048 34.663C208.258 34.663 205.974 32.559 205.458 32.167L205.378 34.089ZM217.686 21.59C217.686 18.079 215.024 15.355 211.459 15.355C207.915 15.355 205.194 18.054 205.194 21.61C205.194 25.121 207.878 27.845 211.451 27.845C214.989 27.844 217.686 25.111 217.686 21.59ZM24.15 34.089H32.709L40.403 24.201L45.2 29.06L34.223 42.804H42.812L49.841 33.695L63.071 47.16H73.44L54.425 28.039L69.4 9.12H60.806L49.739 23.33L44.95 18.516L57.261 3.012H48.69L40.282 13.83L35.716 9.12H25.49L35.79 19.519L24.15 34.089ZM0 0V34.089H22.451V27.728H7.638V19.583H21.786V13.417H7.638V6.351H22.451V0H0ZM127.575 0V34.089H134.758V8.35H135.084L141.264 34.09H149.333L155.658 8.35H155.985V34.09H163.167V0H151.438L145.598 24.879H145.338L139.643 0H127.575Z" fill="#FE000C"/>
  </g>
  <defs>
  <clipPath id="clip0_6_299">
  <rect width="250" height="47.16" fill="white"/>
  </clipPath>
  </defs>
</svg>