<svg width="12" height="12" viewBox="0 0 12 12" fill="none" xmlns="http://www.w3.org/2000/svg">
<path d="M5.46328 3.185C5.46328 4.025 5.22828 4.695 4.75828 5.195C4.29828 5.695 3.69328 5.945 2.94328 5.945C2.19328 5.945 1.58328 5.695 1.11328 5.195C0.653281 4.695 0.423281 4.025 0.423281 3.185C0.423281 2.345 0.653281 1.675 1.11328 1.175C1.58328 0.674999 2.19328 0.424999 2.94328 0.424999C3.70328 0.424999 4.31328 0.674999 4.77328 1.175C5.23328 1.675 5.46328 2.345 5.46328 3.185ZM1.65328 11L9.27328 0.574999H10.3233L2.70328 11H1.65328ZM4.59328 3.185C4.59328 2.575 4.44328 2.09 4.14328 1.73C3.85328 1.37 3.45328 1.19 2.94328 1.19C2.42328 1.19 2.01328 1.365 1.71328 1.715C1.42328 2.065 1.27828 2.555 1.27828 3.185C1.27828 3.815 1.42828 4.31 1.72828 4.67C2.03828 5.02 2.44328 5.195 2.94328 5.195C3.45328 5.195 3.85328 5.02 4.14328 4.67C4.44328 4.32 4.59328 3.825 4.59328 3.185ZM11.5683 8.405C11.5683 9.235 11.3383 9.905 10.8783 10.415C10.4283 10.925 9.81828 11.18 9.04828 11.18C8.29828 11.18 7.68828 10.93 7.21828 10.43C6.75828 9.93 6.52828 9.255 6.52828 8.405C6.52828 7.565 6.75828 6.9 7.21828 6.41C7.68828 5.91 8.29828 5.66 9.04828 5.66C9.80828 5.66 10.4183 5.91 10.8783 6.41C11.3383 6.9 11.5683 7.565 11.5683 8.405ZM10.7133 8.405C10.7133 7.795 10.5633 7.31 10.2633 6.95C9.97328 6.59 9.56828 6.41 9.04828 6.41C8.52828 6.41 8.11828 6.585 7.81828 6.935C7.52828 7.285 7.38328 7.775 7.38328 8.405C7.38328 9.045 7.53328 9.54 7.83328 9.89C8.14328 10.24 8.54828 10.415 9.04828 10.415C9.56828 10.415 9.97328 10.24 10.2633 9.89C10.5633 9.54 10.7133 9.045 10.7133 8.405Z" fill="#1A1717" fill-opacity="0.8"/>
</svg>
