<svg version="1.1" xmlns="http://www.w3.org/2000/svg" xmlns:xlink="http://www.w3.org/1999/xlink">
  <symbol id="ic_account" viewBox="0 0 40 40">
    <path opacity="0.3" d="M32 20C32 26.6 26.6 32 20 32C13.4 32 8 26.6 8 20C8 13.4 13.4 8 20 8C26.6 8 32 13.4 32 20Z" fill="#E8000B"/>
    <path fill-rule="evenodd" clip-rule="evenodd" d="M11.7178 28.6835C12.9782 25.9204 15.7649 24 19.0001 24H21.0001C24.2353 24 27.0221 25.9205 28.2824 28.6836C26.1287 30.7383 23.2118 32 20.0001 32C16.7885 32 13.8715 30.7383 11.7178 28.6835Z" fill="#FE000C"/>
    <circle cx="20" cy="17" r="4" fill="white"/>
  </symbol>
  
  <symbol id="ic_dash" viewBox="0 0 20 20">
    <line x1="8" y1="10" x2="12" y2="10" stroke="#1A1717" stroke-opacity="0.3" stroke-width="2" stroke-linecap="round"/>
  </symbol>
  
  <symbol id="ic_menu_dot" viewBox="0 0 20 20">
    <circle cx="10" cy="10" r="2" fill="#1A1717" fill-opacity="0.44"/>
  </symbol>
  
  <symbol id="ic_menu_dot" viewBox="0 0 20 20">
    <circle cx="10" cy="10" r="2" fill="#1A1717" fill-opacity="0.44"/>
  </symbol>
  
  <symbol id="ic_menu_moderate" viewBox="0 0 20 20">
    <g clip-path="url(#clip0_23_1028)">
    <path opacity="0.3" d="M20.1 9.5V10.6C20.1 11.2 19.7 11.6 19.2 11.7L17.9 11.9C17.7 12.7 17.4 13.5 16.9 14.2L17.7 15.2999C18 15.6999 18 16.3999 17.6 16.7999L16.8 17.6C16.4 18 15.8 18 15.3 17.7L14.2 16.9C13.5 17.3 12.7 17.7 11.9 17.9L11.7 19.2C11.6 19.7 11.1 20.1 10.6 20.1H9.5C8.9 20.1 8.5 19.7 8.4 19.2L8.2 17.9C7.4 17.7 6.6 17.4 5.9 16.9L4.8 17.7C4.4 18 3.7 18 3.3 17.6L2.5 16.7999C2.1 16.3999 2.1 15.7999 2.4 15.2999L3.2 14.2C2.8 13.5 2.4 12.7 2.2 11.9L0.9 11.7C0.4 11.6 0 11.1 0 10.6V9.5C0 8.9 0.4 8.5 0.9 8.4L2.2 8.2C2.4 7.39995 2.7 6.60002 3.2 5.90002L2.4 4.79993C2.1 4.39993 2.1 3.69993 2.5 3.29993L3.3 2.5C3.7 2.1 4.3 2.10002 4.8 2.40002L5.9 3.19995C6.6 2.79995 7.4 2.39995 8.2 2.19995L8.4 0.90002C8.5 0.40002 9 0 9.5 0H10.6C11.2 0 11.6 0.40002 11.7 0.90002L11.9 2.19995C12.7 2.39995 13.5 2.69995 14.2 3.19995L15.3 2.40002C15.7 2.10002 16.4 2.1 16.8 2.5L17.6 3.29993C18 3.69993 18 4.29993 17.7 4.79993L16.9 5.90002C17.3 6.60002 17.7 7.39995 17.9 8.2L19.2 8.4C19.7 8.5 20.1 9 20.1 9.5ZM10.1 6.59998C8.2 6.59998 6.6 8.2 6.6 10.1C6.6 12 8.2 13.6 10.1 13.6C12 13.6 13.6 12 13.6 10.1C13.6 8.2 12 6.59998 10.1 6.59998Z" fill="#1A1717" fill-opacity="0.44"/>
    <path fill-rule="evenodd" clip-rule="evenodd" d="M10.1 15.1C12.9 15.1 15.1 12.9 15.1 10.1C15.1 7.29998 12.9 5.09998 10.1 5.09998C7.29998 5.09998 5.09998 7.29998 5.09998 10.1C5.09998 12.9 7.29998 15.1 10.1 15.1ZM10 13C11.6569 13 13 11.6569 13 10C13 8.34315 11.6569 7 10 7C8.34315 7 7 8.34315 7 10C7 11.6569 8.34315 13 10 13Z" fill="#1A1717" fill-opacity="0.44"/>
    </g>
    <defs>
    <clipPath id="clip0_23_1028">
    <rect width="20" height="20" fill="white"/>
    </clipPath>
    </defs>
  </symbol>
  
  <symbol id="ic_menu_points" viewBox="0 0 20 20">
    <g clip-path="url(#clip0_13_71)">
    <path opacity="0.3" d="M16.041 20.041C16.5932 20.041 17.041 19.5932 17.041 19.041C17.041 18.4887 16.5932 18.041 16.041 18.041C15.4887 18.041 15.041 18.4887 15.041 19.041C15.041 19.5932 15.4887 20.041 16.041 20.041Z" fill="#1A1717" fill-opacity="0.44"/>
    <path opacity="0.3" d="M4.04089 20.041C4.59318 20.041 5.04089 19.5932 5.04089 19.041C5.04089 18.4887 4.59318 18.041 4.04089 18.041C3.48861 18.041 3.04089 18.4887 3.04089 19.041C3.04089 19.5932 3.48861 20.041 4.04089 20.041Z" fill="#1A1717" fill-opacity="0.44"/>
    <path opacity="0.3" d="M5.04092 14.041L17.1409 13.1409C17.7409 13.1409 18.141 12.7409 18.341 12.1409L19.7409 6.34094C19.9409 5.64094 19.4409 5.04095 18.7409 5.04095H3.44092L5.04092 14.041Z" fill="#1A1717" fill-opacity="0.44"/>
    <path d="M17.041 18.041H3.04096C2.74096 18.041 2.34095 17.841 2.14095 17.541C1.94095 17.241 1.94095 16.841 2.14095 16.541L4.04096 12.841L2.14095 2.64095L0.540962 1.84096C0.0409617 1.64096 -0.159048 1.04097 0.140952 0.540969C0.340952 0.0409693 0.940961 -0.159051 1.44096 0.140949L3.44096 1.14095C3.74096 1.24095 3.94096 1.54096 3.94096 1.84096L5.94096 12.841C5.94096 13.041 5.94095 13.241 5.84095 13.441L4.54096 16.041H17.041C17.641 16.041 18.041 16.441 18.041 17.041C18.041 17.641 17.641 18.041 17.041 18.041Z" fill="#1A1717" fill-opacity="0.44"/>
    </g>
    <defs>
    <clipPath id="clip0_13_71">
    <rect width="20" height="20" fill="white"/>
    </clipPath>
    </defs>
  </symbol>
  
  <symbol id="ic16_blocked" viewBox="0 0 16 16">
    <path d="M16 8C16 10.1217 15.1571 12.1566 13.6569 13.6569C12.1566 15.1571 10.1217 16 8 16C5.87827 16 3.84344 15.1571 2.34315 13.6569C0.842855 12.1566 0 10.1217 0 8C0 5.87827 0.842855 3.84344 2.34315 2.34315C3.84344 0.842855 5.87827 0 8 0C10.1217 0 12.1566 0.842855 13.6569 2.34315C15.1571 3.84344 16 5.87827 16 8ZM14 8C14 6.704 13.59 5.504 12.89 4.523L4.523 12.891C5.42064 13.5293 6.47665 13.9082 7.57532 13.9861C8.674 14.0641 9.77293 13.8381 10.7517 13.333C11.7305 12.8278 12.5513 12.063 13.1243 11.1224C13.6972 10.1817 14.0002 9.10143 14 8ZM11.476 3.11C10.3203 2.28801 8.91077 1.90197 7.49751 2.02037C6.08425 2.13877 4.75861 2.75395 3.75578 3.75678C2.75295 4.75961 2.13777 6.08525 2.01937 7.49851C1.90097 8.91177 2.28701 10.3213 3.109 11.477L11.477 3.109L11.476 3.11Z" fill="#FE000C"/>
  </symbol>
  
  <symbol id="ic16_moderate" viewBox="0 0 16 16">
    <circle cx="8" cy="8" r="7" stroke="#FE000C" stroke-width="2"/>
    <path d="M8 4C8.6578 4 9.30546 4.16223 9.88559 4.47231C10.4657 4.7824 10.9604 5.23077 11.3259 5.77772C11.6913 6.32466 11.9163 6.95329 11.9807 7.60793C12.0452 8.26257 11.9472 8.923 11.6955 9.53073C11.4438 10.1385 11.0461 10.6747 10.5376 11.092C10.0291 11.5093 9.42553 11.7948 8.78036 11.9231C8.1352 12.0515 7.46834 12.0187 6.83886 11.8278C6.20938 11.6368 5.63671 11.2936 5.17157 10.8284L8 8L8 4Z" fill="#FE000C"/>
  </symbol>
  
  <symbol id="ic24_arrow_down" viewBox="0 0 24 24">
    <path d="M16.8536 9.85355C17.0488 9.65829 17.0488 9.34171 16.8536 9.14645C16.6583 8.95118 16.3417 8.95118 16.1464 9.14645L16.8536 9.85355ZM7.85355 9.14645C7.65829 8.95118 7.34171 8.95118 7.14645 9.14645C6.95118 9.34171 6.95118 9.65829 7.14645 9.85355L7.85355 9.14645ZM12 14L11.6464 14.3536C11.8417 14.5488 12.1583 14.5488 12.3536 14.3536L12 14ZM16.1464 9.14645L11.6464 13.6464L12.3536 14.3536L16.8536 9.85355L16.1464 9.14645ZM12.3536 13.6464L7.85355 9.14645L7.14645 9.85355L11.6464 14.3536L12.3536 13.6464Z" fill="#1A1717" fill-opacity="0.6"/>
  </symbol>
  
  <symbol id="ic24_arrow_right" viewBox="0 0 24 24">
    <path d="M10.8536 7.14645C10.6583 6.95118 10.3417 6.95118 10.1464 7.14645C9.95118 7.34171 9.95118 7.65829 10.1464 7.85355L10.8536 7.14645ZM10.1464 16.1464C9.95118 16.3417 9.95118 16.6583 10.1464 16.8536C10.3417 17.0488 10.6583 17.0488 10.8536 16.8536L10.1464 16.1464ZM15 12L15.3536 12.3536C15.5488 12.1583 15.5488 11.8417 15.3536 11.6464L15 12ZM10.1464 7.85355L14.6464 12.3536L15.3536 11.6464L10.8536 7.14645L10.1464 7.85355ZM14.6464 11.6464L10.1464 16.1464L10.8536 16.8536L15.3536 12.3536L14.6464 11.6464Z" fill="#1A1717" fill-opacity="0.6"/>
  </symbol>
  
  <symbol id="ic24_bttn_add" viewBox="0 0 24 24">
    <path fill-rule="evenodd" clip-rule="evenodd" d="M13 7C13 6.44772 12.5523 6 12 6C11.4477 6 11 6.44772 11 7V11H7C6.44771 11 6 11.4477 6 12C6 12.5523 6.44771 13 7 13H11V17C11 17.5523 11.4477 18 12 18C12.5523 18 13 17.5523 13 17V13H17C17.5523 13 18 12.5523 18 12C18 11.4477 17.5523 11 17 11H13V7Z" fill="#1A1717" fill-opacity="0.8"/>
  </symbol>
  
  <symbol id="ic24_bttn_down" viewBox="0 0 24 24">
    <path d="M16.7071 10.7071C17.0976 10.3166 17.0976 9.68342 16.7071 9.29289C16.3166 8.90237 15.6834 8.90237 15.2929 9.29289L16.7071 10.7071ZM8.70711 9.29289C8.31658 8.90237 7.68342 8.90237 7.29289 9.29289C6.90237 9.68342 6.90237 10.3166 7.29289 10.7071L8.70711 9.29289ZM12 14L11.2929 14.7071C11.6834 15.0976 12.3166 15.0976 12.7071 14.7071L12 14ZM15.2929 9.29289L11.2929 13.2929L12.7071 14.7071L16.7071 10.7071L15.2929 9.29289ZM12.7071 13.2929L8.70711 9.29289L7.29289 10.7071L11.2929 14.7071L12.7071 13.2929Z" fill="#1A1717" fill-opacity="0.8"/>
  </symbol>
  
  <symbol id="ic24_bttn_left" viewBox="0 0 24 24">
    <path d="M12.2929 16.7071C12.6834 17.0976 13.3166 17.0976 13.7071 16.7071C14.0976 16.3166 14.0976 15.6834 13.7071 15.2929L12.2929 16.7071ZM13.7071 8.70711C14.0976 8.31658 14.0976 7.68342 13.7071 7.29289C13.3166 6.90237 12.6834 6.90237 12.2929 7.29289L13.7071 8.70711ZM9 12L8.29289 11.2929C7.90237 11.6834 7.90237 12.3166 8.29289 12.7071L9 12ZM13.7071 15.2929L9.70711 11.2929L8.29289 12.7071L12.2929 16.7071L13.7071 15.2929ZM9.70711 12.7071L13.7071 8.70711L12.2929 7.29289L8.29289 11.2929L9.70711 12.7071Z" fill="#1A1717" fill-opacity="0.8"/>
  </symbol>
  
  <symbol id="ic24_bttn_upload" viewBox="0 0 24 24">
    <path fill-rule="evenodd" clip-rule="evenodd" d="M11 9.41421L11 13C11 13.5523 11.4477 14 12 14C12.5523 14 13 13.5523 13 13L13 9.41421L14.2929 10.7071C14.6834 11.0976 15.3166 11.0976 15.7071 10.7071C16.0976 10.3166 16.0976 9.68342 15.7071 9.29289L12.8839 6.46967C12.8523 6.43808 12.8194 6.40854 12.7855 6.38104C12.6023 6.14896 12.3186 6 12 6C11.6814 6 11.3977 6.14896 11.2145 6.38104C11.1806 6.40854 11.1477 6.43808 11.1161 6.46967L8.29289 9.29289C7.90237 9.68342 7.90237 10.3166 8.29289 10.7071C8.68342 11.0976 9.31658 11.0976 9.70711 10.7071L11 9.41421ZM17 17C17 17.5523 16.5523 18 16 18H8C7.44771 18 7 17.5523 7 17C7 16.4477 7.44771 16 8 16H16C16.5523 16 17 16.4477 17 17Z" fill="#1A1717" fill-opacity="0.8"/>
  </symbol>
  
  <symbol id="ic24_calendar" viewBox="0 0 24 24">
    <rect opacity="0.4" x="8" y="10" width="8" height="3" fill="#1A1717" fill-opacity="0.6"/>
    <path fill-rule="evenodd" clip-rule="evenodd" d="M9 6C9.55228 6 10 6.44772 10 7V8H14V7C14 6.44772 14.4477 6 15 6C15.5523 6 16 6.44772 16 7V8C17.1046 8 18 8.89543 18 10V16C18 17.1046 17.1046 18 16 18H8C6.89543 18 6 17.1046 6 16V10C6 8.89543 6.89543 8 8 8L8 7C8 6.44772 8.44772 6 9 6ZM16 10H8L8 16H16V10Z" fill="#1A1717" fill-opacity="0.6"/>
  </symbol>
  
  <symbol id="ic24_cancel" viewBox="0 0 24 24">
    <path fill-rule="evenodd" clip-rule="evenodd" d="M11.2929 12L7.14645 16.1464C6.95118 16.3417 6.95118 16.6583 7.14645 16.8536C7.34171 17.0488 7.65829 17.0488 7.85355 16.8536L12 12.7071L16.1464 16.8536C16.3417 17.0488 16.6583 17.0488 16.8536 16.8536C17.0488 16.6583 17.0488 16.3417 16.8536 16.1464L12.7071 12L16.8536 7.85355C17.0488 7.65829 17.0488 7.34171 16.8536 7.14645C16.6583 6.95118 16.3417 6.95118 16.1464 7.14645L12 11.2929L7.85355 7.14645C7.65829 6.95119 7.34171 6.95119 7.14645 7.14645C6.95118 7.34171 6.95118 7.65829 7.14645 7.85355L11.2929 12Z" fill="#1A1717" fill-opacity="0.6"/>
  </symbol>
  
  <symbol id="ic24_external" viewBox="0 0 24 24">
    <path fill-rule="evenodd" clip-rule="evenodd" d="M17.0001 11.5C17.0001 11.7761 17.2239 12 17.5001 12C17.7762 12 18.0001 11.7761 18.0001 11.5L18 6.74999C18 6.70282 17.9957 6.65667 17.9874 6.61191C18.0244 6.44977 17.9798 6.27274 17.8535 6.14645C17.7272 6.02013 17.5501 5.97553 17.3879 6.01265C17.3432 6.00434 17.2972 6 17.25 6L12.5001 6C12.2239 6 12.0001 6.22385 12.0001 6.5C12.0001 6.77614 12.2239 7 12.5001 7H16.2929L11.6464 11.6464C11.4512 11.8417 11.4512 12.1583 11.6464 12.3536C11.8417 12.5488 12.1583 12.5488 12.3535 12.3536L17 7.70704L17.0001 11.5ZM18 17.5C18 17.7761 17.7761 18 17.5 18H6.5C6.22386 18 6 17.7761 6 17.5V6.5C6 6.22386 6.22386 6 6.5 6H8.5C8.77614 6 9 6.22386 9 6.5C9 6.77614 8.77614 7 8.5 7H7V17H17V15.5C17 15.2239 17.2239 15 17.5 15C17.7761 15 18 15.2239 18 15.5V17.5Z" fill="#1A1717" fill-opacity="0.6"/>
  </symbol>
  
  <symbol id="ic24_file" viewBox="0 0 24 24">
    <rect opacity="0.4" x="10" y="13" width="4" height="2" fill="#1A1717" fill-opacity="0.6"/>
    <path d="M8 8C8 7.44772 8.44772 7 9 7H13.5858L16 9.41421V16C16 16.5523 15.5523 17 15 17H9C8.44772 17 8 16.5523 8 16V8Z" stroke="#1A1717" stroke-opacity="0.6" stroke-width="2"/>
  </symbol>
  
  <symbol id="ic24_filter" viewBox="0 0 24 24">
    <mask id="path-1-inside-1_80_1335" fill="white">
    <path d="M17.2648 6H6.73497C6.17073 6 5.81755 6.56989 6.09862 7.02681L9 12C9 12 8.98687 16.9173 8.98687 18.3662C8.98687 18.8539 9.51696 19.1856 10 19L14.5454 16.6338C14.8204 16.5281 15 16.2778 15 16V12C15 12 16.7478 8.56587 17.8654 7.07925C18.2069 6.62508 17.8591 6 17.2648 6Z"/>
    </mask>
    <path d="M6.09862 7.02681L7.82613 6.01898L7.81436 5.99881L7.80213 5.97892L6.09862 7.02681ZM9 12L11 12.0053L11.0014 11.4617L10.7275 10.9922L9 12ZM10 19L10.7173 20.8669L10.8231 20.8263L10.9235 20.774L10 19ZM14.5454 16.6338L13.828 14.7669L13.7223 14.8075L13.6218 14.8598L14.5454 16.6338ZM15 12L13.2176 11.0929L13 11.5203V12H15ZM17.8654 7.07925L16.2669 5.87735L16.2668 5.87738L17.8654 7.07925ZM17.2648 4H6.73497V8H17.2648V4ZM6.73497 4C4.856 4 3.16675 6.0778 4.39512 8.0747L7.80213 5.97892C8.08847 6.44442 8.04345 7.00248 7.79982 7.39561C7.56341 7.77707 7.15378 8 6.73497 8V4ZM4.37112 8.03464L7.2725 13.0078L10.7275 10.9922L7.82613 6.01898L4.37112 8.03464ZM6.98687 18.3662C6.98687 20.4562 9.11574 21.4823 10.7173 20.8669L9.28265 17.1331C9.65737 16.9891 10.0605 17.0445 10.3731 17.2401C10.6897 17.4382 10.9869 17.837 10.9869 18.3662H6.98687ZM10.9235 20.774L15.4689 18.4078L13.6218 14.8598L9.07649 17.226L10.9235 20.774ZM15.2627 18.5007C16.2482 18.122 17 17.1703 17 16H13C13 15.3852 13.3926 14.9341 13.828 14.7669L15.2627 18.5007ZM17 16V12H13V16H17ZM19.464 8.28115C20.9554 6.29762 19.238 4 17.2648 4V8C16.8251 8 16.3974 7.75337 16.1684 7.34187C15.9316 6.91638 15.9278 6.32826 16.2669 5.87735L19.464 8.28115ZM15 12C16.7824 12.9071 16.7824 12.9072 16.7824 12.9073C16.7824 12.9073 16.7824 12.9073 16.7824 12.9073C16.7824 12.9073 16.7824 12.9072 16.7825 12.9071C16.7826 12.9069 16.7828 12.9065 16.7831 12.9058C16.7838 12.9046 16.7848 12.9025 16.7863 12.8996C16.7892 12.8939 16.7937 12.885 16.7998 12.8731C16.812 12.8493 16.8304 12.8135 16.8545 12.767C16.9025 12.6739 16.9729 12.5382 17.0611 12.3702C17.2378 12.0339 17.4845 11.5708 17.7644 11.0638C18.3444 10.0134 19 8.89832 19.464 8.28112L16.2668 5.87738C15.6132 6.7468 14.836 8.0921 14.2628 9.13037C13.966 9.66773 13.7059 10.1562 13.52 10.5101C13.4269 10.6874 13.352 10.8316 13.3001 10.9321C13.2741 10.9824 13.2539 11.0218 13.24 11.049C13.233 11.0627 13.2276 11.0732 13.2238 11.0806C13.2219 11.0843 13.2205 11.0871 13.2194 11.0892C13.2189 11.0902 13.2185 11.091 13.2182 11.0916C13.218 11.0919 13.2179 11.0922 13.2178 11.0924C13.2177 11.0925 13.2177 11.0926 13.2177 11.0927C13.2176 11.0928 13.2176 11.0929 15 12ZM9 12C7.00001 11.9947 7.00001 11.9947 7.00001 11.9947C7.00001 11.9948 7.00001 11.9948 7.00001 11.9949C7.00001 11.995 7.00001 11.9953 7 11.9956C7 11.9962 7 11.9971 7 11.9982C6.99999 12.0006 6.99998 12.0042 6.99997 12.0088C6.99994 12.0182 6.99991 12.0321 6.99986 12.0503C6.99976 12.0867 6.99962 12.1402 6.99944 12.2089C6.99908 12.3462 6.99857 12.544 6.99796 12.7859C6.99672 13.2696 6.99508 13.9297 6.99344 14.6351C6.99016 16.0447 6.98687 17.6389 6.98687 18.3662H10.9869C10.9869 17.6446 10.9901 16.0557 10.9934 14.6444C10.9951 13.9394 10.9967 13.2796 10.9979 12.7961C10.9986 12.5543 10.9991 12.3566 10.9994 12.2193C10.9996 12.1507 10.9997 12.0972 10.9998 12.0609C10.9999 12.0427 10.9999 12.0288 11 12.0195C11 12.0148 11 12.0113 11 12.0089C11 12.0077 11 12.0068 11 12.0062C11 12.0059 11 12.0057 11 12.0056C11 12.0055 11 12.0054 11 12.0054C11 12.0054 11 12.0053 9 12Z" fill="#1A1717" fill-opacity="0.6" mask="url(#path-1-inside-1_80_1335)"/>
    <path opacity="0.4" fill-rule="evenodd" clip-rule="evenodd" d="M13.7904 10C13.689 10.1895 13.598 10.3616 13.52 10.5101C13.4269 10.6874 13.352 10.8316 13.3001 10.9321L13.24 11.049L13.2238 11.0806L13.2194 11.0892L13.2182 11.0916L13.2178 11.0924L13.2177 11.0927C13.2176 11.0928 13.2176 11.0929 15 12L13.2176 11.0929L13 11.5203V12V15.1835L10.99 16.2299L10.9934 14.6444L10.9979 12.7961L10.9994 12.2193L10.9998 12.0609L11 12.0195L11 12.0089L11 12.0062L11 12.0056L11 12.0054L9 12L11 12.0053L11.0014 11.4617L10.7275 10.9922L10.1487 10H13.7904Z" fill="#1A1717" fill-opacity="0.6"/>
  </symbol>
  
  <symbol id="ic24_search" viewBox="0 0 24 24">
    <path fill-rule="evenodd" clip-rule="evenodd" d="M14 11C14 12.6569 12.6569 14 11 14C9.34315 14 8 12.6569 8 11C8 9.34315 9.34315 8 11 8C12.6569 8 14 9.34315 14 11ZM13.7574 15.1716C12.967 15.6951 12.0191 16 11 16C8.23858 16 6 13.7614 6 11C6 8.23858 8.23858 6 11 6C13.7614 6 16 8.23858 16 11C16 12.0191 15.6951 12.967 15.1716 13.7574L17.7071 16.2929C18.0976 16.6834 18.0976 17.3166 17.7071 17.7071C17.3166 18.0976 16.6834 18.0976 16.2929 17.7071L13.7574 15.1716Z" fill="#1A1717" fill-opacity="0.44"/>
  </symbol>
  
  <symbol id="ic32_cancel" viewBox="0 0 32 32">
    <g opacity="0.3">
    <path d="M21 11L11 21" stroke="#1A1717" stroke-width="2" stroke-linecap="round"/>
    <path d="M21 21L11 11" stroke="#1A1717" stroke-width="2" stroke-linecap="round"/>
    </g>
  </symbol>
  
  <symbol id="pic_file" viewBox="0 0 100 100">
    <path d="M0 100V0H72L100 28V100H0Z" fill="url(#paint0_linear_183_3360)"/>
    <path d="M0 100V72L72 0L100 28L28 100H0Z" fill="url(#paint1_linear_183_3360)"/>
    <path d="M72 0H73L100 27V28H72V0Z" fill="#F7F7F7"/>
    <defs>
    <linearGradient id="paint0_linear_183_3360" x1="-6.44475e-07" y1="100" x2="100" y2="-6.44475e-07" gradientUnits="userSpaceOnUse">
    <stop stop-color="#F0F0F0"/>
    <stop offset="1" stop-color="#F7F7F7"/>
    </linearGradient>
    <linearGradient id="paint1_linear_183_3360" x1="100" y1="2.98023e-06" x2="2.98023e-06" y2="100" gradientUnits="userSpaceOnUse">
    <stop stop-color="#EBEBEB"/>
    <stop offset="1" stop-color="#F7F7F7" stop-opacity="0"/>
    </linearGradient>
    </defs>
  </symbol>
  
  <symbol id="pointer" viewBox="0 0 22 25">
    <g filter="url(#filter0_d_23_997)">
    <mask id="path-1-outside-1_23_997" maskUnits="userSpaceOnUse" x="3" y="2" width="16" height="19" fill="black">
    <rect fill="white" x="3" y="2" width="16" height="19"/>
    <path fill-rule="evenodd" clip-rule="evenodd" d="M7.83555 13L6.94894 11.6453C6.34355 10.7203 5.05404 10.3829 4.06767 10.89L4.2975 10.7718C4.05272 10.8977 3.93534 11.2114 4.03613 11.4721L5.2634 14.6474C5.45796 15.1508 5.95486 15.8627 6.36661 16.2203C6.36661 16.2203 8.83555 18.2639 8.83555 19.03V20H12.8355L13.8355 18L14.8355 20H15.8355V19.03C15.8355 18.2639 17.3444 15.8507 17.3444 15.8507C17.6221 15.3816 17.8536 14.5552 17.8536 14.0066V9.9718C17.8355 9.0785 17.0762 8.35454 16.1393 8.35454C15.6705 8.35454 15.2909 8.71652 15.2909 9.16341V9.48657C15.2909 8.59327 14.5315 7.86931 13.5946 7.86931C13.1258 7.86931 12.7462 8.23129 12.7462 8.67819V9.00135C12.7462 8.10804 11.9868 7.38408 11.0499 7.38408C10.5812 7.38408 10.2015 7.74606 10.2015 8.19296V8.51612C10.2015 8.37256 10.1862 8.25843 10.1565 8.16799L9.89773 4.00121C9.86274 3.43776 9.38783 3 8.83555 3C8.27941 3 7.83555 3.44763 7.83555 3.99981V8V13ZM14.8536 12L15.8536 12V16H14.8536V12ZM12.8536 12L13.8536 12V16H12.8536V12ZM10.8536 12L11.8536 12V16H10.8536V12Z"/>
    </mask>
    <path fill-rule="evenodd" clip-rule="evenodd" d="M7.83555 13L6.94894 11.6453C6.34355 10.7203 5.05404 10.3829 4.06767 10.89L4.2975 10.7718C4.05272 10.8977 3.93534 11.2114 4.03613 11.4721L5.2634 14.6474C5.45796 15.1508 5.95486 15.8627 6.36661 16.2203C6.36661 16.2203 8.83555 18.2639 8.83555 19.03V20H12.8355L13.8355 18L14.8355 20H15.8355V19.03C15.8355 18.2639 17.3444 15.8507 17.3444 15.8507C17.6221 15.3816 17.8536 14.5552 17.8536 14.0066V9.9718C17.8355 9.0785 17.0762 8.35454 16.1393 8.35454C15.6705 8.35454 15.2909 8.71652 15.2909 9.16341V9.48657C15.2909 8.59327 14.5315 7.86931 13.5946 7.86931C13.1258 7.86931 12.7462 8.23129 12.7462 8.67819V9.00135C12.7462 8.10804 11.9868 7.38408 11.0499 7.38408C10.5812 7.38408 10.2015 7.74606 10.2015 8.19296V8.51612C10.2015 8.37256 10.1862 8.25843 10.1565 8.16799L9.89773 4.00121C9.86274 3.43776 9.38783 3 8.83555 3C8.27941 3 7.83555 3.44763 7.83555 3.99981V8V13ZM14.8536 12L15.8536 12V16H14.8536V12ZM12.8536 12L13.8536 12V16H12.8536V12ZM10.8536 12L11.8536 12V16H10.8536V12Z" fill="white"/>
    <path d="M7.83555 13L6.99882 13.5476L8.83555 16.354V13H7.83555ZM6.94894 11.6453L7.78566 11.0977L6.94894 11.6453ZM4.03613 11.4721L3.10338 11.8327L4.03613 11.4721ZM5.2634 14.6474L6.19615 14.2869L5.2634 14.6474ZM6.36661 16.2203L5.71088 16.9753L5.71984 16.9831L5.72899 16.9907L6.36661 16.2203ZM8.83555 20H7.83555V21H8.83555V20ZM12.8355 20V21H13.4536L13.73 20.4472L12.8355 20ZM13.8355 18L14.73 17.5528L13.8355 15.7639L12.9411 17.5528L13.8355 18ZM14.8355 20L13.9411 20.4472L14.2175 21H14.8355V20ZM15.8355 20V21H16.8355V20H15.8355ZM17.3444 15.8507L18.1923 16.3808L18.1987 16.3706L18.2049 16.3602L17.3444 15.8507ZM17.8536 9.9718H18.8536V9.96168L18.8534 9.95156L17.8536 9.9718ZM10.1565 8.16799L9.15843 8.22998L9.16637 8.35779L9.20626 8.47948L10.1565 8.16799ZM9.89773 4.00121L8.89965 4.0632V4.0632L9.89773 4.00121ZM7.83555 3.99981H6.83555H7.83555ZM15.8536 12H16.8536V11H15.8536V12ZM15.8536 16V17H16.8536V16H15.8536ZM14.8536 16H13.8536V17H14.8536V16ZM13.8536 12H14.8536V11H13.8536V12ZM13.8536 16V17H14.8536V16H13.8536ZM12.8536 16H11.8536V17H12.8536V16ZM11.8536 12H12.8536V11H11.8536V12ZM11.8536 16V17H12.8536V16H11.8536ZM10.8536 16H9.85364V17H10.8536V16ZM8.67227 12.4524L7.78566 11.0977L6.11221 12.193L6.99882 13.5476L8.67227 12.4524ZM7.78566 11.0977C6.89807 9.74153 5.04892 9.2611 3.61046 10.0006L4.52489 11.7793C5.05915 11.5047 5.78903 11.6992 6.11221 12.193L7.78566 11.0977ZM4.52489 11.7793L4.75472 11.6612L3.84029 9.88245L3.61046 10.0006L4.52489 11.7793ZM3.84029 9.88245C3.13107 10.2471 2.82221 11.1052 3.10338 11.8327L4.96888 11.1116C5.01446 11.2295 5.00452 11.3396 4.97402 11.4213C4.9436 11.5027 4.87647 11.5986 4.75472 11.6612L3.84029 9.88245ZM3.10338 11.8327L4.33065 15.0079L6.19615 14.2869L4.96888 11.1116L3.10338 11.8327ZM4.33065 15.0079C4.58336 15.6618 5.17467 16.5096 5.71088 16.9753L7.02235 15.4653C6.73505 15.2158 6.33256 14.6398 6.19615 14.2869L4.33065 15.0079ZM6.36661 16.2203C5.72899 16.9907 5.72893 16.9906 5.72888 16.9906C5.72888 16.9906 5.72884 16.9905 5.72883 16.9905C5.72881 16.9905 5.72883 16.9905 5.72888 16.9906C5.729 16.9907 5.72925 16.9909 5.72966 16.9912C5.73046 16.9919 5.73185 16.993 5.7338 16.9947C5.73769 16.9979 5.74381 17.003 5.75203 17.0099C5.76846 17.0237 5.79322 17.0445 5.82511 17.0716C5.88894 17.1259 5.98107 17.205 6.092 17.3025C6.31488 17.4985 6.60889 17.7648 6.90011 18.051C7.19576 18.3416 7.46766 18.6324 7.65871 18.8795C7.75472 19.0037 7.81303 19.0948 7.84316 19.1524C7.8837 19.23 7.83555 19.1741 7.83555 19.03H9.83555C9.83555 18.6944 9.71025 18.407 9.61577 18.2262C9.51087 18.0255 9.3763 17.8312 9.24085 17.6561C8.96897 17.3045 8.62364 16.9407 8.30205 16.6247C7.97604 16.3042 7.65282 16.0118 7.41277 15.8007C7.29223 15.6947 7.19147 15.6081 7.12029 15.5476C7.08467 15.5174 7.05639 15.4935 7.03665 15.477C7.02678 15.4687 7.01905 15.4623 7.01359 15.4577C7.01087 15.4555 7.00871 15.4537 7.00714 15.4524C7.00636 15.4517 7.00573 15.4512 7.00524 15.4508C7.005 15.4506 7.00479 15.4504 7.00462 15.4503C7.00454 15.4502 7.00444 15.4501 7.0044 15.4501C7.00431 15.45 7.00423 15.45 6.36661 16.2203ZM7.83555 19.03V20H9.83555V19.03H7.83555ZM8.83555 21H12.8355V19H8.83555V21ZM13.73 20.4472L14.73 18.4472L12.9411 17.5528L11.9411 19.5528L13.73 20.4472ZM12.9411 18.4472L13.9411 20.4472L15.73 19.5528L14.73 17.5528L12.9411 18.4472ZM14.8355 21H15.8355V19H14.8355V21ZM16.8355 20V19.03H14.8355V20H16.8355ZM16.8355 19.03C16.8355 19.0658 16.8465 18.9439 16.9921 18.6C17.1161 18.3073 17.2882 17.9649 17.47 17.6279C17.6502 17.2941 17.8315 16.9809 17.9685 16.7503C18.0367 16.6354 18.0934 16.5418 18.1327 16.4775C18.1524 16.4453 18.1677 16.4206 18.1778 16.4041C18.1829 16.3959 18.1867 16.3897 18.1892 16.3858C18.1904 16.3839 18.1913 16.3825 18.1918 16.3816C18.1921 16.3812 18.1922 16.3809 18.1923 16.3808C18.1924 16.3807 18.1924 16.3807 18.1924 16.3807C18.1924 16.3807 18.1924 16.3807 18.1923 16.3807C18.1923 16.3808 18.1923 16.3808 17.3444 15.8507C16.4965 15.3205 16.4964 15.3206 16.4964 15.3207C16.4964 15.3207 16.4963 15.3208 16.4963 15.3209C16.4962 15.321 16.4961 15.3212 16.4959 15.3214C16.4956 15.3219 16.4953 15.3225 16.4948 15.3232C16.4939 15.3247 16.4926 15.3268 16.4909 15.3294C16.4877 15.3347 16.483 15.3422 16.477 15.3518C16.4651 15.3711 16.448 15.3989 16.4264 15.4342C16.3832 15.5049 16.322 15.6059 16.2488 15.7291C16.1029 15.9749 15.907 16.3129 15.7099 16.6782C15.5145 17.0402 15.3094 17.4448 15.1505 17.82C15.0132 18.1441 14.8355 18.6111 14.8355 19.03H16.8355ZM18.2049 16.3602C18.4027 16.0261 18.5593 15.6131 18.6668 15.2258C18.7741 14.839 18.8536 14.4009 18.8536 14.0066H16.8536C16.8536 14.161 16.8175 14.4103 16.7396 14.6912C16.6618 14.9714 16.5639 15.2061 16.4839 15.3412L18.2049 16.3602ZM18.8536 14.0066V9.9718H16.8536V14.0066H18.8536ZM18.8534 9.95156C18.8237 8.48181 17.5879 7.35454 16.1393 7.35454V9.35454C16.5646 9.35454 16.8474 9.67519 16.8538 9.99205L18.8534 9.95156ZM16.1393 7.35454C15.1637 7.35454 14.2909 8.11981 14.2909 9.16341H16.2909C16.2909 9.23171 16.2602 9.28577 16.2293 9.31516C16.1994 9.34373 16.1653 9.35454 16.1393 9.35454V7.35454ZM14.2909 9.16341V9.48657H16.2909V9.16341H14.2909ZM16.2909 9.48657C16.2909 7.99657 15.0383 6.86931 13.5946 6.86931V8.86931C14.0247 8.86931 14.2909 9.18998 14.2909 9.48657H16.2909ZM13.5946 6.86931C12.6191 6.86931 11.7462 7.63458 11.7462 8.67819H13.7462C13.7462 8.74648 13.7155 8.80054 13.6847 8.82993C13.6547 8.8585 13.6206 8.86931 13.5946 8.86931V6.86931ZM11.7462 8.67819V9.00135H13.7462V8.67819H11.7462ZM13.7462 9.00135C13.7462 7.51134 12.4936 6.38408 11.0499 6.38408V8.38408C11.4801 8.38408 11.7462 8.70475 11.7462 9.00135H13.7462ZM11.0499 6.38408C10.0744 6.38408 9.2015 7.14936 9.2015 8.19296H11.2015C11.2015 8.26126 11.1708 8.31532 11.14 8.3447C11.11 8.37328 11.0759 8.38408 11.0499 8.38408V6.38408ZM9.2015 8.19296V8.51612H11.2015V8.19296H9.2015ZM11.2015 8.51612C11.2015 8.3088 11.1803 8.08088 11.1068 7.85651L9.20626 8.47948C9.19841 8.45553 9.19759 8.44436 9.19853 8.45156C9.19947 8.45874 9.2015 8.4791 9.2015 8.51612H11.2015ZM11.1546 8.10601L10.8958 3.93923L8.89965 4.0632L9.15843 8.22998L11.1546 8.10601ZM10.8958 3.93923C10.8279 2.84504 9.91249 2 8.83555 2V4C8.84436 4 8.86024 4.00346 8.8772 4.01933C8.89327 4.03438 8.89882 4.04976 8.89965 4.0632L10.8958 3.93923ZM8.83555 2C7.7248 2 6.83555 2.89768 6.83555 3.99981H8.83555V4V2ZM6.83555 3.99981V8H8.83555V3.99981H6.83555ZM6.83555 8V13H8.83555V8H6.83555ZM14.8536 13H15.8536V11H14.8536V13ZM14.8536 12V16H16.8536V12H14.8536ZM15.8536 15H14.8536V17H15.8536V15ZM15.8536 16V12H13.8536V16H15.8536ZM12.8536 13H13.8536V11H12.8536V13ZM12.8536 12V16H14.8536V12H12.8536ZM13.8536 15H12.8536V17H13.8536V15ZM13.8536 16V12H11.8536V16H13.8536ZM10.8536 13H11.8536V11H10.8536V13ZM10.8536 12V16H12.8536V12H10.8536ZM11.8536 15H10.8536V17H11.8536V15ZM11.8536 16V12H9.85364V16H11.8536Z" fill="black" fill-opacity="0.8" mask="url(#path-1-outside-1_23_997)"/>
    </g>
    <defs>
    <filter id="filter0_d_23_997" x="0.000183105" y="0" width="21.8535" height="25" filterUnits="userSpaceOnUse" color-interpolation-filters="sRGB">
    <feFlood flood-opacity="0" result="BackgroundImageFix"/>
    <feColorMatrix in="SourceAlpha" type="matrix" values="0 0 0 0 0 0 0 0 0 0 0 0 0 0 0 0 0 0 127 0" result="hardAlpha"/>
    <feOffset dy="1"/>
    <feGaussianBlur stdDeviation="1.5"/>
    <feColorMatrix type="matrix" values="0 0 0 0 0 0 0 0 0 0 0 0 0 0 0 0 0 0 0.2 0"/>
    <feBlend mode="normal" in2="BackgroundImageFix" result="effect1_dropShadow_23_997"/>
    <feBlend mode="normal" in="SourceGraphic" in2="effect1_dropShadow_23_997" result="shape"/>
    </filter>
    </defs>
  </symbol>
</svg>