<svg width="24" height="24" viewBox="0 0 24 24" fill="none" xmlns="http://www.w3.org/2000/svg">
<path d="M16.7474 9.66436C17.1143 9.25158 17.0771 8.61951 16.6644 8.25259C16.2516 7.88567 15.6195 7.92285 15.2526 8.33564L16.7474 9.66436ZM10.6667 15L9.91926 15.6644C10.109 15.8779 10.381 16 10.6667 16C10.9523 16 11.2243 15.8779 11.4141 15.6644L10.6667 15ZM8.74741 11.3356C8.38049 10.9229 7.74842 10.8857 7.33564 11.2526C6.92285 11.6195 6.88567 12.2516 7.25259 12.6644L8.74741 11.3356ZM15.2526 8.33564L9.91926 14.3356L11.4141 15.6644L16.7474 9.66436L15.2526 8.33564ZM11.4141 14.3356L8.74741 11.3356L7.25259 12.6644L9.91926 15.6644L11.4141 14.3356Z" fill="white"/>
</svg>
