<svg id="ic24_external" width="24" height="24" viewBox="0 0 24 24" fill="none" xmlns="http://www.w3.org/2000/svg">
  <path fill-rule="evenodd" clip-rule="evenodd" d="M17.0001 11.5C17.0001 11.7761 17.2239 12 17.5001 12C17.7762 12 18.0001 11.7761 18.0001 11.5L18 6.74999C18 6.70282 17.9957 6.65667 17.9874 6.61191C18.0244 6.44977 17.9798 6.27274 17.8535 6.14645C17.7272 6.02013 17.5501 5.97553 17.3879 6.01265C17.3432 6.00434 17.2972 6 17.25 6L12.5001 6C12.2239 6 12.0001 6.22385 12.0001 6.5C12.0001 6.77614 12.2239 7 12.5001 7H16.2929L11.6464 11.6464C11.4512 11.8417 11.4512 12.1583 11.6464 12.3536C11.8417 12.5488 12.1583 12.5488 12.3535 12.3536L17 7.70704L17.0001 11.5ZM18 17.5C18 17.7761 17.7761 18 17.5 18H6.5C6.22386 18 6 17.7761 6 17.5V6.5C6 6.22386 6.22386 6 6.5 6H8.5C8.77614 6 9 6.22386 9 6.5C9 6.77614 8.77614 7 8.5 7H7V17H17V15.5C17 15.2239 17.2239 15 17.5 15C17.7761 15 18 15.2239 18 15.5V17.5Z" fill="#1A1717" fill-opacity="0.6"/>
</svg>