<svg width="36" height="36" viewBox="0 0 36 36" fill="none" xmlns="http://www.w3.org/2000/svg">
<mask id="path-1-inside-1_1250_8553" fill="white">
<path d="M25.0198 10H10.98C10.2276 10 9.75674 10.7423 10.1315 11.3374L15 17.8147C15 17.8147 14.9825 23.2193 14.9825 25.1064C14.9825 25.7417 15.6893 26.1737 16.3333 25.9319L20.3938 22.85C20.7606 22.7124 21 22.3864 21 22.0246V17.8147C21 17.8147 24.3303 13.3419 25.8206 11.4057C26.2759 10.8141 25.8121 10 25.0198 10Z"/>
</mask>
<path d="M10.1315 11.3374L8.4391 12.4031L8.48312 12.473L8.53274 12.539L10.1315 11.3374ZM15 17.8147L17 17.8212L17.0022 17.1498L16.5988 16.6131L15 17.8147ZM16.3333 25.9319L17.0361 27.8044L17.3097 27.7017L17.5425 27.525L16.3333 25.9319ZM20.3938 22.85L19.691 20.9776L19.4174 21.0803L19.1847 21.2569L20.3938 22.85ZM21 17.8147L19.3958 16.6203L19 17.1519V17.8147H21ZM25.8206 11.4057L24.2357 10.1858L24.2357 10.1858L25.8206 11.4057ZM25.0198 8H10.98V12H25.0198V8ZM10.98 8C9.92456 8 8.97899 8.53125 8.44427 9.3741C7.89867 10.2341 7.8085 11.4017 8.4391 12.4031L11.8239 10.2716C12.0797 10.6779 12.0376 11.1768 11.8219 11.5169C11.617 11.8399 11.283 12 10.98 12V8ZM8.53274 12.539L13.4012 19.0164L16.5988 16.6131L11.7303 10.1357L8.53274 12.539ZM12.9825 25.1064C12.9825 27.4011 15.3404 28.4409 17.0361 27.8044L15.6305 24.0595C15.9114 23.9541 16.2158 23.9927 16.4594 24.1415C16.7072 24.293 16.9825 24.6285 16.9825 25.1064H12.9825ZM17.5425 27.525L21.603 24.4431L19.1847 21.2569L15.1242 24.3388L17.5425 27.525ZM21.0966 24.7225C22.1583 24.324 23 23.3075 23 22.0246H19C19 21.4653 19.3628 21.1008 19.691 20.9776L21.0966 24.7225ZM23 22.0246V17.8147H19V22.0246H23ZM27.4055 12.6256C28.1592 11.6463 28.154 10.4181 27.6258 9.49099C27.1095 8.5847 26.1295 8 25.0198 8V12C24.7023 12 24.3504 11.8224 24.1503 11.471C23.9383 11.0989 23.9373 10.5735 24.2357 10.1858L27.4055 12.6256ZM21 17.8147C22.6042 19.0092 22.6042 19.0092 22.6042 19.0091C22.6042 19.0091 22.6043 19.009 22.6043 19.009C22.6044 19.0089 22.6045 19.0087 22.6047 19.0084C22.6051 19.0079 22.6057 19.0071 22.6065 19.006C22.6081 19.0039 22.6105 19.0007 22.6136 18.9965C22.6199 18.988 22.6293 18.9754 22.6417 18.9588C22.6663 18.9257 22.7027 18.8769 22.7496 18.814C22.8434 18.6882 22.979 18.5062 23.1465 18.2818C23.4815 17.8329 23.9437 17.2142 24.4522 16.5353C25.4719 15.1739 26.6695 13.5818 27.4055 12.6255L24.2357 10.1858C23.4814 11.1658 22.2687 12.7782 21.2507 14.1373C20.7404 14.8186 20.2768 15.4392 19.9408 15.8894C19.7728 16.1146 19.6366 16.2972 19.5424 16.4236C19.4953 16.4868 19.4587 16.5359 19.4339 16.5692C19.4214 16.5859 19.412 16.5987 19.4056 16.6072C19.4024 16.6115 19.3999 16.6148 19.3983 16.617C19.3975 16.6181 19.3969 16.6189 19.3965 16.6195C19.3963 16.6197 19.3961 16.6199 19.396 16.6201C19.3959 16.6202 19.3959 16.6202 19.3959 16.6203C19.3958 16.6203 19.3958 16.6203 21 17.8147ZM15 17.8147C13 17.8083 13 17.8083 13 17.8083C13 17.8084 13 17.8084 13 17.8085C13 17.8087 13 17.8089 13 17.8093C13 17.8099 13 17.8109 13 17.8122C13 17.8148 13 17.8187 13 17.8239C12.9999 17.8342 12.9999 17.8495 12.9998 17.8695C12.9997 17.9096 12.9995 17.9686 12.9993 18.0443C12.9988 18.1959 12.9981 18.4144 12.9973 18.6826C12.9956 19.2189 12.9934 19.9536 12.9913 20.7474C12.9869 22.3337 12.9825 24.1596 12.9825 25.1064H16.9825C16.9825 24.1661 16.9869 22.3462 16.9912 20.7584C16.9934 19.9652 16.9956 19.2308 16.9973 18.6948C16.9981 18.4268 16.9988 18.2084 16.9992 18.057C16.9995 17.9813 16.9997 17.9223 16.9998 17.8823C16.9999 17.8623 16.9999 17.847 16.9999 17.8367C17 17.8316 17 17.8277 17 17.8251C17 17.8238 17 17.8228 17 17.8222C17 17.8219 17 17.8216 17 17.8215C17 17.8214 17 17.8213 17 17.8213C17 17.8212 17 17.8212 15 17.8147Z" fill="#1A1717" fill-opacity="0.8" mask="url(#path-1-inside-1_1250_8553)"/>
</svg>
