<svg width="16" height="16" viewBox="0 0 16 16" fill="none" xmlns="http://www.w3.org/2000/svg">
<path d="M16 8C16 10.1217 15.1571 12.1566 13.6569 13.6569C12.1566 15.1571 10.1217 16 8 16C5.87827 16 3.84344 15.1571 2.34315 13.6569C0.842855 12.1566 0 10.1217 0 8C0 5.87827 0.842855 3.84344 2.34315 2.34315C3.84344 0.842855 5.87827 0 8 0C10.1217 0 12.1566 0.842855 13.6569 2.34315C15.1571 3.84344 16 5.87827 16 8ZM14 8C14 6.704 13.59 5.504 12.89 4.523L4.523 12.891C5.42064 13.5293 6.47665 13.9082 7.57532 13.9861C8.674 14.0641 9.77293 13.8381 10.7517 13.333C11.7305 12.8278 12.5513 12.063 13.1243 11.1224C13.6972 10.1817 14.0002 9.10143 14 8ZM11.476 3.11C10.3203 2.28801 8.91077 1.90197 7.49751 2.02037C6.08425 2.13877 4.75861 2.75395 3.75578 3.75678C2.75295 4.75961 2.13777 6.08525 2.01937 7.49851C1.90097 8.91177 2.28701 10.3213 3.109 11.477L11.477 3.109L11.476 3.11Z" fill="#FE000C"/>
</svg>
