<svg width="24" height="24" viewBox="0 0 24 24" fill="none" xmlns="http://www.w3.org/2000/svg">
<path d="M7.14645 9.85355C6.95118 9.65829 6.95118 9.34171 7.14645 9.14645C7.34171 8.95118 7.65829 8.95118 7.85355 9.14645L7.14645 9.85355ZM16.1464 9.14645C16.3417 8.95118 16.6583 8.95118 16.8536 9.14645C17.0488 9.34171 17.0488 9.65829 16.8536 9.85355L16.1464 9.14645ZM12 14L12.3536 14.3536C12.1583 14.5488 11.8417 14.5488 11.6464 14.3536L12 14ZM7.85355 9.14645L12.3536 13.6464L11.6464 14.3536L7.14645 9.85355L7.85355 9.14645ZM11.6464 13.6464L16.1464 9.14645L16.8536 9.85355L12.3536 14.3536L11.6464 13.6464Z" fill="#FE000C"/>
</svg>
