<svg width="24" height="24" viewBox="0 0 24 24" fill="none" xmlns="http://www.w3.org/2000/svg">
<path d="M16.8536 9.85355C17.0488 9.65829 17.0488 9.34171 16.8536 9.14645C16.6583 8.95118 16.3417 8.95118 16.1464 9.14645L16.8536 9.85355ZM7.85355 9.14645C7.65829 8.95118 7.34171 8.95118 7.14645 9.14645C6.95118 9.34171 6.95118 9.65829 7.14645 9.85355L7.85355 9.14645ZM12 14L11.6464 14.3536C11.8417 14.5488 12.1583 14.5488 12.3536 14.3536L12 14ZM16.1464 9.14645L11.6464 13.6464L12.3536 14.3536L16.8536 9.85355L16.1464 9.14645ZM12.3536 13.6464L7.85355 9.14645L7.14645 9.85355L11.6464 14.3536L12.3536 13.6464Z" fill="#1A1717" fill-opacity="0.6"/>
</svg>
