<svg width="24" height="24" viewBox="0 0 24 24" fill="none" xmlns="http://www.w3.org/2000/svg">
<path d="M10.8536 7.14645C10.6583 6.95118 10.3417 6.95118 10.1464 7.14645C9.95118 7.34171 9.95118 7.65829 10.1464 7.85355L10.8536 7.14645ZM10.1464 16.1464C9.95118 16.3417 9.95118 16.6583 10.1464 16.8536C10.3417 17.0488 10.6583 17.0488 10.8536 16.8536L10.1464 16.1464ZM15 12L15.3536 12.3536C15.5488 12.1583 15.5488 11.8417 15.3536 11.6464L15 12ZM10.1464 7.85355L14.6464 12.3536L15.3536 11.6464L10.8536 7.14645L10.1464 7.85355ZM14.6464 11.6464L10.1464 16.1464L10.8536 16.8536L15.3536 12.3536L14.6464 11.6464Z" fill="#1A1717" fill-opacity="0.6"/>
</svg>
